<svg width="26" height="26" viewBox="0 0 26 26" fill="none" xmlns="http://www.w3.org/2000/svg">
<path d="M2.5 1.75H5.5C5.5 1.75 6.25 1.75 6.25 2.5V5.5C6.25 5.5 6.25 6.25 5.5 6.25H2.5C2.5 6.25 1.75 6.25 1.75 5.5V2.5C1.75 2.5 1.75 1.75 2.5 1.75Z" stroke="black" stroke-width="1.5" stroke-linecap="round" stroke-linejoin="round"/>
<path d="M2.5 19.75H5.5C5.5 19.75 6.25 19.75 6.25 20.5V23.5C6.25 23.5 6.25 24.25 5.5 24.25H2.5C2.5 24.25 1.75 24.25 1.75 23.5V20.5C1.75 20.5 1.75 19.75 2.5 19.75Z" stroke="black" stroke-width="1.5" stroke-linecap="round" stroke-linejoin="round"/>
<path d="M20.5 19.75H23.5C23.5 19.75 24.25 19.75 24.25 20.5V23.5C24.25 23.5 24.25 24.25 23.5 24.25H20.5C20.5 24.25 19.75 24.25 19.75 23.5V20.5C19.75 20.5 19.75 19.75 20.5 19.75Z" stroke="black" stroke-width="1.5" stroke-linecap="round" stroke-linejoin="round"/>
<path d="M20.5 1.75H23.5C23.5 1.75 24.25 1.75 24.25 2.5V5.5C24.25 5.5 24.25 6.25 23.5 6.25H20.5C20.5 6.25 19.75 6.25 19.75 5.5V2.5C19.75 2.5 19.75 1.75 20.5 1.75Z" stroke="black" stroke-width="1.5" stroke-linecap="round" stroke-linejoin="round"/>
<path d="M6.25 3.25H19.75" stroke="black" stroke-width="1.5" stroke-linecap="round" stroke-linejoin="round"/>
<path d="M3.25 6.25V19.75" stroke="black" stroke-width="1.5" stroke-linecap="round" stroke-linejoin="round"/>
<path d="M22.75 6.25V19.75" stroke="black" stroke-width="1.5" stroke-linecap="round" stroke-linejoin="round"/>
<path d="M6.25 22.75H19.75" stroke="black" stroke-width="1.5" stroke-linecap="round" stroke-linejoin="round"/>
</svg>
