<svg width="26" height="26" viewBox="0 0 26 26" fill="none" xmlns="http://www.w3.org/2000/svg">
<path d="M15.25 17.5H14.5C14.1022 17.5 13.7206 17.342 13.4393 17.0607C13.158 16.7794 13 16.3978 13 16V12.25C13 12.0511 12.921 11.8603 12.7803 11.7197C12.6397 11.579 12.4489 11.5 12.25 11.5H11.5" stroke="black" stroke-width="1.5" stroke-linecap="round" stroke-linejoin="round"/>
<path d="M12.625 8.5C12.5255 8.5 12.4302 8.46049 12.3598 8.39016C12.2895 8.31984 12.25 8.22446 12.25 8.125C12.25 8.02554 12.2895 7.93016 12.3598 7.85984C12.4302 7.78951 12.5255 7.75 12.625 7.75" stroke="black" stroke-width="1.5"/>
<path d="M12.625 8.5C12.7245 8.5 12.8198 8.46049 12.8902 8.39016C12.9605 8.31984 13 8.22446 13 8.125C13 8.02554 12.9605 7.93016 12.8902 7.85984C12.8198 7.78951 12.7245 7.75 12.625 7.75" stroke="black" stroke-width="1.5"/>
<path d="M13 24.25C19.213 24.25 24.25 19.213 24.25 13C24.25 6.787 19.213 1.75 13 1.75C6.787 1.75 1.75 6.787 1.75 13C1.75 19.213 6.787 24.25 13 24.25Z" stroke="black" stroke-width="1.5" stroke-linecap="round" stroke-linejoin="round"/>
</svg>
