<svg width="18" height="18" viewBox="0 0 18 18" fill="none" xmlns="http://www.w3.org/2000/svg">
<path d="M11.25 14.25L10.2 13.1813L12.8813 10.5H5.625C4.6875 10.5 3.89063 10.1719 3.23438 9.51563C2.57813 8.85938 2.25 8.0625 2.25 7.125C2.25 6.1875 2.57813 5.39063 3.23438 4.73438C3.89063 4.07813 4.6875 3.75 5.625 3.75H6V5.25H5.625C5.1 5.25 4.65625 5.43125 4.29375 5.79375C3.93125 6.15625 3.75 6.6 3.75 7.125C3.75 7.65 3.93125 8.09375 4.29375 8.45625C4.65625 8.81875 5.1 9 5.625 9H12.8813L10.2 6.3L11.25 5.25L15.75 9.75L11.25 14.25Z" fill="#161616"/>
</svg>
