<svg width="26" height="26" viewBox="0 0 26 26" fill="none" xmlns="http://www.w3.org/2000/svg">
<path d="M3.25 1.74609H22.75C22.75 1.74609 24.25 1.74609 24.25 3.24609V9.24609C24.25 9.24609 24.25 10.7461 22.75 10.7461H3.25C3.25 10.7461 1.75 10.7461 1.75 9.24609V3.24609C1.75 3.24609 1.75 1.74609 3.25 1.74609Z" stroke="black" stroke-width="1.5" stroke-linecap="round" stroke-linejoin="round"/>
<path d="M3.25 15.2461H22.75C22.75 15.2461 24.25 15.2461 24.25 16.7461V22.7461C24.25 22.7461 24.25 24.2461 22.75 24.2461H3.25C3.25 24.2461 1.75 24.2461 1.75 22.7461V16.7461C1.75 16.7461 1.75 15.2461 3.25 15.2461Z" stroke="black" stroke-width="1.5" stroke-linecap="round" stroke-linejoin="round"/>
</svg>
