<svg width="26" height="26" viewBox="0 0 26 26" fill="none" xmlns="http://www.w3.org/2000/svg">
<path d="M8.5 1.75H4C3.60218 1.75 3.22064 1.90804 2.93934 2.18934C2.65804 2.47064 2.5 2.85218 2.5 3.25V22.75C2.5 23.1478 2.65804 23.5294 2.93934 23.8107C3.22064 24.092 3.60218 24.25 4 24.25H8.5C8.89782 24.25 9.27936 24.092 9.56066 23.8107C9.84196 23.5294 10 23.1478 10 22.75V3.25C10 2.85218 9.84196 2.47064 9.56066 2.18934C9.27936 1.90804 8.89782 1.75 8.5 1.75Z" stroke="black" stroke-width="1.5" stroke-linecap="round" stroke-linejoin="round"/>
<path d="M12.76 1.85938L16.92 3.57937C17.1068 3.65483 17.2765 3.76689 17.4193 3.90896C17.5621 4.05102 17.675 4.22022 17.7514 4.40658C17.8279 4.59295 17.8662 4.79272 17.8642 4.99414C17.8623 5.19555 17.82 5.39453 17.74 5.57937L10 22.7494" stroke="black" stroke-width="1.5" stroke-linecap="round" stroke-linejoin="round"/>
<path d="M20.0803 6.78906L23.0803 10.1191C23.213 10.2648 23.3157 10.4352 23.3826 10.6207C23.4494 10.8061 23.479 11.0029 23.4697 11.1998C23.4604 11.3967 23.4124 11.5898 23.3284 11.7681C23.2445 11.9465 23.1262 12.1065 22.9803 12.2391L9.82031 23.4491" stroke="black" stroke-width="1.5" stroke-linecap="round" stroke-linejoin="round"/>
<path d="M2.5 8.25H10" stroke="black" stroke-width="1.5" stroke-linecap="round" stroke-linejoin="round"/>
<path d="M2.5 14.75H10" stroke="black" stroke-width="1.5" stroke-linecap="round" stroke-linejoin="round"/>
<path d="M6.18359 21.2559C6.08414 21.2559 5.98876 21.2164 5.91843 21.146C5.8481 21.0757 5.80859 20.9803 5.80859 20.8809C5.80859 20.7814 5.8481 20.686 5.91843 20.6157C5.98876 20.5454 6.08414 20.5059 6.18359 20.5059" stroke="black" stroke-width="1.5"/>
<path d="M6.18359 21.2559C6.28305 21.2559 6.37843 21.2164 6.44876 21.146C6.51908 21.0757 6.55859 20.9803 6.55859 20.8809C6.55859 20.7814 6.51908 20.686 6.44876 20.6157C6.37843 20.5454 6.28305 20.5059 6.18359 20.5059" stroke="black" stroke-width="1.5"/>
</svg>
